<svg xmlns="http://www.w3.org/2000/svg" version="1.1" xmlns:xlink="http://www.w3.org/1999/xlink" xmlns:svgjs="http://svgjs.com/svgjs" id="Pattern844SvgRootPreview" width="100%" height="100%"><defs><pattern x="0" y="0" width="1" height="1" patternUnits="userSpaceOnUse" id="Pattern844Layer1"><g id="PatternRootContent1"><g id="Pattern844Layer1background"><rect width="1" height="1" id="Pattern844Background1" class="fill_color_1" fill="#04bfbf"></rect></g></g></pattern><pattern x="0" y="0" width="120" height="120" patternUnits="userSpaceOnUse" id="Pattern844Layer2" patternTransform="matrix(0.6,0,0,0.6,0,0)"><g id="PatternRootContent2"><g id="Pattern844Layer2Element2"><use xlink:href="#Pattern844Element2" x="33.04084014892578" y="3.040842056274414" transform="translate(60, 30) scale(1) translate(-60, -30) rotate(0, 60, 30)"></use><use xlink:href="#Pattern844Element2" x="93.04084014892578" y="63.040842056274414" transform="translate(120, 90) scale(1) translate(-120, -90) rotate(0, 120, 90)"></use><use xlink:href="#Pattern844Element2" x="-26.95915985107422" y="63.040842056274414" transform="translate(0, 90) scale(1) translate(0, -90) rotate(0, 0, 90)"></use></g></g></pattern><symbol id="Pattern844Element2"><g class="fill_color_3" fill="#038c8c"><path d="M39.272,6.431154727935791L38.33,1.4591543674468994l-2.312,3.393c-1.695,-0.599,-3.518,-0.928,-5.418,-0.928c-8.984,0,-16.267,7.283,-16.267,16.267S21.617,36.459,30.601,36.45915222167969l0,-2.145c-7.787,0,-14.121,-6.335,-14.121,-14.123c0,-7.787,6.334,-14.123,14.121,-14.123c1.448,0,2.845,0.22,4.162,0.627l-1.793,2.632l5.278,-1.001l1.337,-0.253L39.272,6.431154727935791Z" transform="matrix(1,0,0,1,0,0)"></path><path d="M50.181,21.1502742767334L53.031,16.96844482421875l-4.034,0.764c-0.775,-1.622,-1.831,-3.144,-3.175,-4.487c-6.353,-6.353,-16.652,-6.353,-23.005,0S16.464,29.899,22.817,36.251953125l1.517,-1.517c-5.506,-5.506,-5.506,-14.465,0.001,-19.972c5.506,-5.506,14.465,-5.508,19.972,-0.001c1.024,1.024,1.856,2.167,2.5,3.386l-3.129,0.593l4.44,3.024l1.124,0.767L50.181,21.1502742767334Z" transform="matrix(1,0,0,1,0,0)"></path><path d="M47.487,39.27215576171875L52.459,38.33015441894531l-3.393,-2.312c0.599,-1.695,0.928,-3.518,0.928,-5.418c0,-8.984,-7.283,-16.267,-16.267,-16.267S17.459,21.617,17.459,30.601154327392578l2.145,0c0,-7.787,6.335,-14.121,14.123,-14.121c7.787,0,14.123,6.334,14.123,14.121c0,1.448,-0.22,2.845,-0.627,4.162l-2.632,-1.793l1.001,5.278l0.253,1.337L47.487,39.27215576171875Z" transform="matrix(1,0,0,1,0,0)"></path><path d="M32.768,50.181251525878906L36.95,53.03089141845703l-0.765,-4.034c1.622,-0.775,3.144,-1.831,4.487,-3.175c6.353,-6.353,6.353,-16.652,0,-23.005S24.019,16.464,17.666,22.816923141479492l1.517,1.517c5.506,-5.506,14.465,-5.506,19.972,0.001c5.506,5.506,5.508,14.465,0.001,19.972c-1.024,1.024,-2.167,1.856,-3.386,2.5l-0.593,-3.129l-3.024,4.44l-0.767,1.124L32.768,50.181251525878906Z" transform="matrix(1,0,0,1,0,0)"></path><path d="M14.646,47.48715591430664L15.588,52.45915603637695l2.312,-3.393c1.695,0.599,3.518,0.928,5.418,0.928c8.984,0,16.267,-7.283,16.267,-16.267S32.301,17.459,23.317,17.459156036376953l0,2.145c7.787,0,14.121,6.335,14.121,14.123c0,7.787,-6.334,14.123,-14.121,14.123c-1.448,0,-2.845,-0.22,-4.162,-0.627l1.793,-2.632l-5.278,1.001l-1.337,0.253L14.646,47.48715591430664Z" transform="matrix(1,0,0,1,0,0)"></path><path d="M3.737,32.768035888671875L0.887,36.94986343383789l4.034,-0.764c0.775,1.622,1.831,3.144,3.175,4.487c6.353,6.353,16.652,6.353,23.005,0S37.454,24.019,31.101,17.66635513305664l-1.516,1.517c5.506,5.506,5.506,14.465,-0.001,19.972c-5.506,5.506,-14.465,5.508,-19.972,0.001c-1.024,-1.024,-1.856,-2.167,-2.5,-3.386l3.129,-0.593l-4.44,-3.024l-1.124,-0.767L3.737,32.768035888671875Z" transform="matrix(1,0,0,1,0,0)"></path><path d="M6.431,14.646157264709473L1.459,15.588156700134277l3.393,2.312c-0.599,1.695,-0.928,3.518,-0.928,5.418c0,8.984,7.283,16.267,16.267,16.267S36.459,32.301,36.459,23.317155838012695l-2.145,0c0,7.787,-6.335,14.121,-14.123,14.121c-7.787,0,-14.123,-6.334,-14.123,-14.121c0,-1.448,0.22,-2.845,0.627,-4.162l2.632,1.793l-1.001,-5.278l-0.253,-1.337L6.431,14.646157264709473Z" transform="matrix(1,0,0,1,0,0)"></path><path d="M21.15,3.7370595932006836L16.968,0.8874186873435974l0.765,4.034c-1.622,0.775,-3.144,1.831,-4.487,3.175c-6.353,6.353,-6.353,16.652,0,23.005S29.899,37.454,36.252,31.10138702392578l-1.517,-1.517c-5.506,5.506,-14.465,5.506,-19.972,-0.001c-5.506,-5.506,-5.508,-14.465,-0.001,-19.972c1.024,-1.024,2.167,-1.856,3.386,-2.5l0.593,3.129l3.024,-4.44l0.767,-1.124L21.15,3.7370595932006836Z" transform="matrix(1,0,0,1,0,0)"></path></g></symbol></defs><rect width="100%" height="100%" id="Pattern844RctLayer1" fill="url(#Pattern844Layer1)"></rect><rect width="100%" height="100%" id="Pattern844RctLayer2" fill="url(#Pattern844Layer2)"></rect></svg>